<svg width="170" height="179" viewBox="0 0 170 179" fill="none" xmlns="http://www.w3.org/2000/svg">
<path fill-rule="evenodd" clip-rule="evenodd" d="M105.108 157.061C90.7947 156.739 80.9907 143.513 67.6715 138.271C54.5413 133.103 37.2821 137.361 28.0209 126.722C18.5859 115.883 20.6726 99.5342 21.4628 85.187C22.2511 70.8737 23.6015 55.9342 32.5374 44.7174C41.5111 33.4532 56.4027 30.3813 69.6439 24.7077C85.5784 17.88 101.571 1.75297 117.637 8.25353C133.749 14.7732 133.707 37.6556 140.819 53.5069C146.593 66.3763 153.724 78.1504 155.285 92.1691C157.107 108.54 160.544 127.101 150.463 140.138C140.347 153.22 121.644 157.434 105.108 157.061Z" fill="url(#paint0_linear)"/>
<defs>
<linearGradient id="paint0_linear" x1="104.316" y1="160.679" x2="65.9839" y2="17.6211" gradientUnits="userSpaceOnUse">
<stop stop-color="#6D678E"/>
<stop offset="1" stop-color="#F6B5CC"/>
</linearGradient>
</defs>
</svg>
